<?xml version="1.0" encoding="UTF-8"?>
<!-- Created with Inkscape (http://www.inkscape.org/) -->
<svg width="44.064mm" height="7.5292mm" version="1.1" viewBox="0 0 44.064 7.5292" xmlns="http://www.w3.org/2000/svg">
 <g stroke-width=".26458" aria-label="commet">
  <path d="m2.9766 7.5292q-0.98702 0-1.6536-0.3669-0.66662-0.3669-0.99735-1.0387-0.32556-0.67179-0.32556-1.5916 0-0.85266 0.3514-1.54 0.35657-0.68729 1.0439-1.0852 0.69246-0.40307 1.664-0.40307 0.62012 0 1.1214 0.1757 0.50643 0.1757 0.86816 0.49092 0.12919 0.11369 0.19637 0.29972 0.067179 0.18603 0.067179 0.38757 0 0.24288-0.11886 0.44442-0.11369 0.19637-0.31523 0.31006-0.19637 0.11369-0.42891 0.11369-0.24288 0-0.44958-0.11886-0.20154-0.11886-0.31523-0.31523-0.10852-0.18603-0.27388-0.27905-0.16536-0.098185-0.42375-0.098185-0.45992 0-0.73897 0.40307-0.27905 0.39791-0.27905 1.2041 0 0.81648 0.27905 1.2092 0.28422 0.38757 0.73897 0.38757 0.24805 0 0.43408-0.10852 0.18603-0.11369 0.30489-0.32556 0.12919-0.21704 0.32556-0.34623t0.44958-0.12919q0.24288 0 0.44958 0.12402 0.21187 0.11886 0.3359 0.33073 0.12402 0.20671 0.12402 0.45475 0 0.18087-0.067179 0.34623-0.067179 0.16536-0.18603 0.28939-0.36173 0.37207-0.9095 0.57361-0.5426 0.20154-1.2712 0.20154z"/>
  <path d="m9.0278 7.5292q-0.95084 0-1.6278-0.38757-0.67696-0.39274-1.0284-1.0749-0.3514-0.68213-0.3514-1.5451 0-0.86816 0.35657-1.5503 0.36173-0.68729 1.049-1.0749 0.69246-0.39274 1.6433-0.39274 0.95601 0 1.6381 0.39274 0.68729 0.38757 1.0387 1.0697 0.3514 0.68213 0.3514 1.5348 0 0.87333-0.3669 1.5606-0.36173 0.68729-1.0594 1.08-0.69246 0.38757-1.6433 0.38757zm0.031006-1.4108q0.5271 0 0.79065-0.42891 0.26872-0.42891 0.26872-1.1782 0-0.73897-0.26872-1.1679-0.26355-0.42891-0.80098-0.42891-0.5271 0-0.79581 0.42891-0.26355 0.42375-0.26355 1.1575 0 0.75447 0.26872 1.1886 0.26872 0.42891 0.80098 0.42891z"/>
  <path d="m13.885 7.4827q-0.26872 0-0.49609-0.12919-0.22221-0.13436-0.35657-0.36173-0.13436-0.22738-0.13436-0.49092v-4.0411q0-0.24805 0.12402-0.45475 0.12402-0.21187 0.33073-0.3359 0.21187-0.12402 0.45475-0.12402 0.25321 0 0.46509 0.12402 0.21187 0.12402 0.3359 0.3359 0.12402 0.20671 0.12402 0.45475v0.14469q0.24288-0.47542 0.70796-0.78548 0.47025-0.31523 1.1524-0.31523 1.4263 0 1.8603 1.1524 0.26355-0.53743 0.7338-0.84232 0.47025-0.31006 1.1627-0.31006 1.0542 0 1.54 0.59944 0.49092 0.59944 0.49092 1.6536v2.744q0 0.26355-0.13436 0.49092-0.13436 0.22221-0.36173 0.35657-0.22221 0.13436-0.48576 0.13436-0.26872 0-0.49609-0.12919-0.22221-0.13436-0.35657-0.36173-0.13436-0.22738-0.13436-0.49092v-2.4443q0-0.58911-0.25321-0.81649-0.24805-0.23254-0.57877-0.23254-0.38757 0-0.67179 0.28422-0.28422 0.28422-0.28422 1.0077v2.2014q0 0.26355-0.13436 0.49092-0.13436 0.22221-0.36173 0.35657-0.22221 0.13436-0.48576 0.13436-0.26872 0-0.49609-0.12919-0.22221-0.13436-0.35657-0.36173-0.13436-0.22738-0.13436-0.49092v-2.4443q0-0.58911-0.25321-0.81649-0.24805-0.23254-0.57877-0.23254-0.38757 0-0.67179 0.28422-0.28422 0.28422-0.28422 1.0077v2.2014q0 0.26355-0.13436 0.49092-0.13436 0.22221-0.36173 0.35657-0.22221 0.13436-0.48576 0.13436z"/>
  <path d="m24.329 7.4827q-0.26872 0-0.49609-0.12919-0.22221-0.13436-0.35657-0.36173-0.13436-0.22738-0.13436-0.49092v-4.0411q0-0.24805 0.12402-0.45475 0.12402-0.21187 0.33073-0.3359 0.21187-0.12402 0.45475-0.12402 0.25321 0 0.46509 0.12402 0.21187 0.12402 0.3359 0.3359 0.12402 0.20671 0.12402 0.45475v0.14469q0.24288-0.47542 0.70796-0.78548 0.47025-0.31523 1.1524-0.31523 1.4263 0 1.8603 1.1524 0.26355-0.53743 0.7338-0.84232 0.47025-0.31006 1.1627-0.31006 1.0542 0 1.54 0.59944 0.49092 0.59944 0.49092 1.6536v2.744q0 0.26355-0.13436 0.49092-0.13436 0.22221-0.36173 0.35657-0.22221 0.13436-0.48576 0.13436-0.26872 0-0.49609-0.12919-0.22221-0.13436-0.35657-0.36173-0.13436-0.22738-0.13436-0.49092v-2.4443q0-0.58911-0.25321-0.81649-0.24805-0.23254-0.57877-0.23254-0.38757 0-0.67179 0.28422-0.28422 0.28422-0.28422 1.0077v2.2014q0 0.26355-0.13436 0.49092-0.13436 0.22221-0.36173 0.35657-0.22221 0.13436-0.48576 0.13436-0.26872 0-0.49609-0.12919-0.22221-0.13436-0.35657-0.36173-0.13436-0.22738-0.13436-0.49092v-2.4443q0-0.58911-0.25321-0.81649-0.24805-0.23254-0.57877-0.23254-0.38757 0-0.67179 0.28422-0.28422 0.28422-0.28422 1.0077v2.2014q0 0.26355-0.13436 0.49092-0.13436 0.22221-0.36173 0.35657-0.22221 0.13436-0.48576 0.13436z"/>
  <path d="m36.613 7.5292q-0.86816 0-1.5606-0.37207-0.6873-0.37207-1.08-1.049-0.38757-0.68213-0.38757-1.5761 0-0.8785 0.36173-1.5658 0.3669-0.68729 1.0439-1.0749t1.5813-0.38757q0.894 0 1.5503 0.37207 0.65629 0.3669 0.99735 0.96635 0.34106 0.59428 0.34106 1.2661 0 0.48059-0.1912 0.70796-0.1912 0.22221-0.67696 0.22221h-3.1212q0.05684 0.49609 0.37207 0.80098 0.31523 0.29972 0.81132 0.29972 0.29972 0 0.48576-0.093017 0.1912-0.098185 0.36173-0.26355 0.12919-0.12919 0.26355-0.20154 0.13953-0.077514 0.32039-0.077514 0.21187 0 0.39274 0.10852 0.18604 0.10852 0.28939 0.29972 0.10852 0.18603 0.10852 0.40824 0 0.3669-0.31522 0.63562-0.28939 0.24288-0.82165 0.40824-0.5271 0.16536-1.1265 0.16536zm0.95084-3.6432q-0.02067-0.50126-0.29972-0.79065t-0.72347-0.28939-0.72347 0.28939q-0.27905 0.28422-0.3359 0.79065z"/>
  <path d="m42.623 7.5292q-0.68213 0-1.0852-0.22738-0.40308-0.23254-0.57877-0.68213-0.1757-0.44958-0.1757-1.1575v-2.527h-0.29456q-0.1757 0-0.32556-0.08785t-0.23771-0.23771q-0.08268-0.14986-0.08268-0.32039 0-0.27388 0.18604-0.46509 0.1912-0.1912 0.45992-0.1912h0.29455v-0.72863q0-0.44442 0.26872-0.67179 0.26872-0.23254 0.69246-0.23254t0.68213 0.23254q0.25838 0.22738 0.25838 0.67179v0.72864h0.62528q0.1757 0 0.32556 0.08785 0.14986 0.08785 0.23254 0.23771 0.08785 0.14469 0.08785 0.32039 0 0.1757-0.08785 0.32556-0.08268 0.14986-0.23254 0.24288-0.14986 0.08785-0.32556 0.08785h-0.57877v2.3564q0 0.31006 0.09302 0.47542 0.09819 0.16536 0.23771 0.22738 0.14469 0.062011 0.3669 0.10335 0.63562 0.11886 0.63562 0.68729 0 0.42891-0.3824 0.58911-0.37724 0.15503-1.0594 0.15503z"/>
 </g>
</svg>
